<?xml version="1.0" encoding="UTF-8"?><svg id="Layer_1" xmlns="http://www.w3.org/2000/svg" xmlns:xlink="http://www.w3.org/1999/xlink" viewBox="0 0 430.44 121.59"><defs><style>.cls-1{fill:#057e9d;}.cls-2{fill:url(#linear-gradient);}</style><linearGradient id="linear-gradient" x1="299.45" y1="274.13" x2="404.42" y2="302.26" gradientTransform="translate(15.85 -391.91) rotate(45)" gradientUnits="userSpaceOnUse"><stop offset=".03" stop-color="#5bbe81"/><stop offset=".25" stop-color="#00acc8"/><stop offset="1" stop-color="#0e2346"/></linearGradient></defs><g><path class="cls-1" d="M148.57,47.36h12.87c5.1,0,7.77,2.92,7.77,6.99,0,2.71-1.27,4.81-3.49,5.92v.08c2.96,.95,4.73,3.41,4.73,6.62,0,4.19-2.71,7.28-7.93,7.28h-13.94v-26.88Zm12.21,10.89c2.18,0,3.21-1.32,3.21-3s-.82-3-3.25-3h-6.91v6h6.95Zm.82,11.14c2.47,0,3.45-1.44,3.45-3.21s-1.23-3.25-3.41-3.25h-7.81v6.45h7.77Z"/><path class="cls-1" d="M174.31,47.36h5.26v26.88h-5.26v-26.88Z"/><path class="cls-1" d="M183.76,60.8c0-8.06,5.92-13.98,14.31-13.98s14.31,5.92,14.31,13.98-5.92,13.98-14.31,13.98-14.31-5.92-14.31-13.98Zm23.27,0c0-5.26-3.62-9.08-8.96-9.08s-8.96,3.82-8.96,9.08,3.62,9.13,8.96,9.13,8.96-3.86,8.96-9.13Z"/><path class="cls-1" d="M216.57,47.36h5.26v26.88h-5.26v-26.88Z"/><path class="cls-1" d="M226.77,58.04c0-6.91,4.07-11.22,11.43-11.22s11.43,4.32,11.43,11.22v16.2h-5.26v-16.2c0-3.99-2.06-6.33-6.17-6.33s-6.17,2.34-6.17,6.33v16.2h-5.26v-16.2Z"/><path class="cls-1" d="M254.52,47.36h19.48v4.89h-14.22v5.92h11.84v4.77h-11.84v11.3h-5.26v-26.88Z"/><path class="cls-1" d="M277.95,47.36h19.81v4.89h-14.55v6h12.17v4.69h-12.17v6.45h14.55v4.85h-19.81v-26.88Z"/><path class="cls-1" d="M302.42,47.36h11.26c6.82,0,9.82,3.74,9.82,8.88,0,4.23-2.01,7.15-5.63,8.34l6.62,9.66h-6.25l-5.71-9.08h-4.85v9.08h-5.26v-26.88Zm11.35,12.91c3.33,0,4.44-1.73,4.44-4.03s-1.11-3.99-4.44-3.99h-6.08v8.02h6.08Z"/><path class="cls-1" d="M328.15,47.36h19.81v4.89h-14.55v6h12.17v4.69h-12.17v6.45h14.55v4.85h-19.81v-26.88Z"/><path class="cls-1" d="M352,58.04c0-6.91,4.07-11.22,11.43-11.22s11.43,4.32,11.43,11.22v16.2h-5.26v-16.2c0-3.99-2.06-6.33-6.17-6.33s-6.17,2.34-6.17,6.33v16.2h-5.26v-16.2Z"/><path class="cls-1" d="M378.39,60.8c0-8.06,5.92-13.98,14.31-13.98,7.03,0,12.33,4.15,13.85,10.28h-5.55c-1.27-3.25-4.32-5.38-8.3-5.38-5.34,0-8.96,3.82-8.96,9.08s3.62,9.13,8.96,9.13c3.99,0,7.03-2.18,8.3-5.43h5.55c-1.52,6.12-6.82,10.28-13.85,10.28-8.39,0-14.31-5.92-14.31-13.98Z"/><path class="cls-1" d="M410.63,47.36h19.81v4.89h-14.55v6h12.17v4.69h-12.17v6.45h14.55v4.85h-19.81v-26.88Z"/></g><g><path class="cls-2" d="M46.14,46.14c5.06-5.06,5.06-13.3,0-18.37-5.06-5.06-13.3-5.06-18.37,0-.32,.32-.62,.65-.9,.99-4.81,5.77-2.58,12.36-6.15,15.93-3.57,3.57-10.16,1.34-15.93,6.15-.34,.28-.67,.58-.99,.9-5.06,5.06-5.06,13.3,0,18.37,5.06,5.06,13.3,5.06,18.37,0h0c5.99-5.99,3.27-13.15,7.05-16.92,3.77-3.77,10.93-1.05,16.92-7.05h0Z"/><path class="cls-2" d="M93.83,93.83c5.06-5.06,5.06-13.3,0-18.37s-13.3-5.06-18.37,0c-.32,.32-.62,.65-.9,.99-4.81,5.77-2.58,12.36-6.15,15.93-3.57,3.57-10.16,1.34-15.93,6.15-.34,.28-.67,.58-.99,.9-5.06,5.06-5.06,13.3,0,18.37s13.3,5.06,18.37,0h0c5.99-5.99,3.27-13.15,7.05-16.92s10.93-1.05,16.92-7.05h0Z"/><path class="cls-2" d="M92.77,53.31c3.57,3.57,1.34,10.16,6.15,15.93,.28,.34,.58,.67,.9,.99,5.06,5.06,13.3,5.06,18.37,0,2.56-2.56,3.82-5.94,3.79-9.31,.03-3.37-1.23-6.75-3.79-9.31-1.95-1.95-4.36-3.14-6.88-3.59-3.93-1.03-7.66-.83-10.04-3.21-2.9-2.9-1.98-7.81-4.12-12.65-.63-1.65-1.6-3.2-2.93-4.52-3.56-3.56-8.68-4.6-13.17-3.17-2.05,.58-3.98,1.68-5.59,3.29-.32,.32-.62,.65-.9,.99-4.81,5.77-2.58,12.36-6.15,15.93-3.57,3.57-10.16,1.34-15.93,6.15-.34,.28-.67,.58-.99,.9-5.06,5.06-5.06,13.3,0,18.37,2.56,2.56,5.94,3.82,9.31,3.79,3.37,.03,6.75-1.23,9.31-3.79,1.95-1.95,3.14-4.36,3.59-6.88,1.03-3.93,.83-7.66,3.21-10.04,1.88-1.88,4.6-2.16,7.59-2.7,3.26,.64,6.26,.8,8.28,2.82Z"/><path class="cls-2" d="M46.26,75.58c-5.06-5.06-13.31-5.06-18.37,0-5.06,5.06-5.06,13.3,0,18.37,5.06,5.06,13.3,5.06,18.37,0s5.06-13.3,0-18.37Z"/><path class="cls-2" d="M51.74,22.17c5.06,5.06,13.3,5.06,18.37,0,5.06-5.06,5.06-13.3,0-18.37-5.06-5.06-13.31-5.06-18.37,0-5.06,5.06-5.06,13.3,0,18.37Z"/></g></svg>